<?xml version="1.0" standalone="no"?><!DOCTYPE svg PUBLIC "-//W3C//DTD SVG 1.1//EN" "http://www.w3.org/Graphics/SVG/1.1/DTD/svg11.dtd"><svg t="1567053499186" class="icon" viewBox="0 0 1024 1024" version="1.1" xmlns="http://www.w3.org/2000/svg" p-id="34166" xmlns:xlink="http://www.w3.org/1999/xlink" width="200" height="200"><defs><style type="text/css"></style></defs><path d="M216 128h464c8.85 0 16 7.15 16 16v736c0 8.85-7.15 16-16 16-5.25 0-9.9-2.55-12.8-6.45l-219.2-264.5-219.7 265.15L216 880l12.3 10.2c-5.65 6.8-15.7 7.75-22.55 2.1-3.8-3.15-5.8-7.7-5.8-12.3V144c0.05-8.85 7.2-16 16.05-16z" fill="#E53935" p-id="34167"></path><path d="M696 278.1v339.75c-9.25 1.55-18.65 2.3-28.2 2.3-45.8 0-89.35-18.05-121.75-50.45-32.4-32.4-50.45-75.95-50.45-121.75s18.05-89.35 50.45-121.75c32.4-32.4 75.95-50.45 121.75-50.45 9.55 0.05 18.95 0.85 28.2 2.35z" fill="#BF3531" p-id="34168"></path><path d="M235.75 160c0-1.65-1.1-3.15-2.7-3.6-2.4-0.7-4.8 1.1-4.8 3.6v7.5c0 1.65 1.1 3.15 2.7 3.6 2.4 0.7 4.8-1.1 4.8-3.6v-7.5z m34-3.75c-1.65 0-3.15 1.1-3.6 2.7-0.7 2.4 1.1 4.8 3.6 4.8h7.5c1.65 0 3.15-1.1 3.6-2.7 0.7-2.4-1.1-4.8-3.6-4.8h-7.5z m52.5 0c-1.65 0-3.15 1.1-3.6 2.7-0.7 2.4 1.1 4.8 3.6 4.8h7.5c1.65 0 3.15-1.1 3.6-2.7 0.7-2.4-1.1-4.8-3.6-4.8h-7.5z m52.5 0c-1.65 0-3.15 1.1-3.6 2.7-0.7 2.4 1.1 4.8 3.6 4.8h7.5c1.65 0 3.15-1.1 3.6-2.7 0.7-2.4-1.1-4.8-3.6-4.8h-7.5z m52.5 0c-1.65 0-3.15 1.1-3.6 2.7-0.7 2.4 1.1 4.8 3.6 4.8h7.5c1.65 0 3.15-1.1 3.6-2.7 0.7-2.4-1.1-4.8-3.6-4.8h-7.5z m52.5 0c-1.65 0-3.15 1.1-3.6 2.7-0.7 2.4 1.1 4.8 3.6 4.8h7.5c1.65 0 3.15-1.1 3.6-2.7 0.7-2.4-1.1-4.8-3.6-4.8h-7.5z m52.5 0c-1.65 0-3.15 1.1-3.6 2.7-0.7 2.4 1.1 4.8 3.6 4.8h7.5c1.65 0 3.15-1.1 3.6-2.7 0.7-2.4-1.1-4.8-3.6-4.8h-7.5z m52.5 0c-1.65 0-3.15 1.1-3.6 2.7-0.7 2.4 1.1 4.8 3.6 4.8h7.5c1.65 0 3.15-1.1 3.6-2.7 0.7-2.4-1.1-4.8-3.6-4.8h-7.5z m52.5 0c-1.65 0-3.15 1.1-3.6 2.7-0.7 2.4 1.1 4.8 3.6 4.8h7.5c1.65 0 3.15-1.1 3.6-2.7 0.7-2.4-1.1-4.8-3.6-4.8h-7.5z m30.5 29.5c0-1.65-1.1-3.15-2.7-3.6-2.4-0.7-4.8 1.1-4.8 3.6v7.5c0 1.65 1.1 3.15 2.7 3.6 2.4 0.7 4.8-1.1 4.8-3.6v-7.5z m0 52.5c0-1.65-1.1-3.15-2.7-3.6-2.4-0.7-4.8 1.1-4.8 3.6v7.5c0 1.65 1.1 3.15 2.7 3.6 2.4 0.7 4.8-1.1 4.8-3.6v-7.5z m0 52.5c0-1.65-1.1-3.15-2.7-3.6-2.4-0.7-4.8 1.1-4.8 3.6v7.5c0 1.65 1.1 3.15 2.7 3.6 2.4 0.7 4.8-1.1 4.8-3.6v-7.5z m0 52.5c0-1.65-1.1-3.15-2.7-3.6-2.4-0.7-4.8 1.1-4.8 3.6v7.5c0 1.65 1.1 3.15 2.7 3.6 2.4 0.7 4.8-1.1 4.8-3.6v-7.5z m0 52.5c0-1.65-1.1-3.15-2.7-3.6-2.4-0.7-4.8 1.1-4.8 3.6v7.5c0 1.65 1.1 3.15 2.7 3.6 2.4 0.7 4.8-1.1 4.8-3.6v-7.5z m0 52.5c0-1.65-1.1-3.15-2.7-3.6-2.4-0.7-4.8 1.1-4.8 3.6v7.5c0 1.65 1.1 3.15 2.7 3.6 2.4 0.7 4.8-1.1 4.8-3.6v-7.5z m0 52.5c0-1.65-1.1-3.15-2.7-3.6-2.4-0.7-4.8 1.1-4.8 3.6v7.5c0 1.65 1.1 3.15 2.7 3.6 2.4 0.7 4.8-1.1 4.8-3.6v-7.5z m0 52.5c0-1.65-1.1-3.15-2.7-3.6-2.4-0.7-4.8 1.1-4.8 3.6v7.5c0 1.65 1.1 3.15 2.7 3.6 2.4 0.7 4.8-1.1 4.8-3.6v-7.5z m0 52.5c0-1.65-1.1-3.15-2.7-3.6-2.4-0.7-4.8 1.1-4.8 3.6v7.5c0 1.65 1.1 3.15 2.7 3.6 2.4 0.7 4.8-1.1 4.8-3.6v-7.5z m0 52.5c0-1.65-1.1-3.15-2.7-3.6-2.4-0.7-4.8 1.1-4.8 3.6v7.5c0 1.65 1.1 3.15 2.7 3.6 2.4 0.7 4.8-1.1 4.8-3.6v-7.5z m0 52.5c0-1.65-1.1-3.15-2.7-3.6-2.4-0.7-4.8 1.1-4.8 3.6v7.5c0 1.65 1.1 3.15 2.7 3.6 2.4 0.7 4.8-1.1 4.8-3.6v-7.5z m0 52.5c0-1.65-1.1-3.15-2.7-3.6-2.4-0.7-4.8 1.1-4.8 3.6v7.5c0 1.65 1.1 3.15 2.7 3.6 2.4 0.7 4.8-1.1 4.8-3.6v-7.5z m0 52.5c0-1.65-1.1-3.15-2.7-3.6-2.4-0.7-4.8 1.1-4.8 3.6v7.5c0 1.65 1.1 3.15 2.7 3.6 2.4 0.7 4.8-1.1 4.8-3.6v-7.5z m-27.5-2.95c2.2 2.75 6.75 1.05 6.65-2.5 0-0.85-0.3-1.65-0.85-2.3l-4.8-5.8c-2.2-2.75-6.75-1.05-6.65 2.5 0 0.85 0.3 1.65 0.85 2.3l4.8 5.8z m-33.5-40.4c2.2 2.75 6.75 1.05 6.65-2.5 0-0.85-0.3-1.65-0.85-2.3l-4.8-5.8c-2.2-2.75-6.75-1.05-6.65 2.5 0 0.85 0.3 1.65 0.85 2.3l4.8 5.8z m-33.5-40.45c2.2 2.75 6.75 1.05 6.65-2.5 0-0.85-0.3-1.65-0.85-2.3l-4.8-5.8c-2.2-2.75-6.75-1.05-6.65 2.5 0 0.85 0.3 1.65 0.85 2.3l4.8 5.8z m-33.5-40.4c2.2 2.75 6.75 1.05 6.65-2.5 0-0.85-0.3-1.65-0.85-2.3l-4.8-5.8c-2.2-2.75-6.75-1.05-6.65 2.5 0 0.85 0.3 1.65 0.85 2.3l4.8 5.8z m-33.45-40.45c2.2 2.75 6.75 1.05 6.65-2.5 0-0.85-0.3-1.65-0.85-2.3l-4.8-5.8c-2.2-2.75-6.75-1.05-6.65 2.5 0 0.85 0.3 1.65 0.85 2.3l4.8 5.8z m-33.5-40.4c2.2 2.75 6.75 1.05 6.65-2.5 0-0.85-0.3-1.65-0.85-2.3l-4.8-5.8c-2.2-2.75-6.75-1.05-6.65 2.5 0 0.85 0.3 1.65 0.85 2.3l4.8 5.8z m-27.75-26.4c2.6-3.2-1-7.65-4.7-5.7-0.4 0.25-0.8 0.55-1.1 0.9l-4.8 5.8c-2.6 3.2 1 7.65 4.7 5.7 0.4-0.25 0.8-0.55 1.1-0.9l4.8-5.8z m-33.5 40.45c2.6-3.2-1-7.65-4.7-5.7-0.4 0.25-0.8 0.55-1.1 0.9l-4.8 5.8c-2.6 3.2 1 7.65 4.7 5.7 0.4-0.25 0.8-0.55 1.1-0.9l4.8-5.8z m-33.5 40.4c2.6-3.2-1-7.65-4.7-5.7-0.4 0.25-0.8 0.55-1.1 0.9l-4.8 5.8c-2.6 3.2 1 7.65 4.7 5.7 0.4-0.25 0.8-0.55 1.1-0.9l4.8-5.8z m-33.5 40.45c2.6-3.2-1-7.65-4.7-5.7-0.4 0.25-0.8 0.55-1.1 0.9l-4.8 5.8c-2.6 3.2 1 7.65 4.7 5.7 0.4-0.25 0.8-0.55 1.1-0.9l4.8-5.8z m-33.45 40.4c2.6-3.2-1-7.65-4.7-5.7-0.4 0.25-0.8 0.55-1.1 0.9L300.5 747c-2.6 3.2 1 7.65 4.7 5.7 0.4-0.25 0.8-0.55 1.1-0.9l4.8-5.8z m-33.5 40.45c2.6-3.2-1-7.65-4.7-5.7-0.4 0.25-0.8 0.55-1.1 0.9l-4.8 5.8c-2.6 3.2 1 7.65 4.7 5.7 0.4-0.25 0.8-0.55 1.1-0.9l4.8-5.8z m-33.5 40.4c2.6-3.2-1-7.65-4.7-5.7-0.4 0.25-0.8 0.55-1.1 0.9l-4.8 5.8c-2.6 3.2 1 7.65 4.7 5.7 0.4-0.25 0.8-0.55 1.1-0.9l4.8-5.8z m-15.85-29.35c0 1.65 1.1 3.15 2.7 3.6 2.4 0.7 4.8-1.1 4.8-3.6v-7.5c0-1.65-1.1-3.15-2.7-3.6-2.4-0.7-4.8 1.1-4.8 3.6v7.5z m0-52.5c0 1.65 1.1 3.15 2.7 3.6 2.4 0.7 4.8-1.1 4.8-3.6v-7.5c0-1.65-1.1-3.15-2.7-3.6-2.4-0.7-4.8 1.1-4.8 3.6v7.5z m0-52.5c0 1.65 1.1 3.15 2.7 3.6 2.4 0.7 4.8-1.1 4.8-3.6v-7.5c0-1.65-1.1-3.15-2.7-3.6-2.4-0.7-4.8 1.1-4.8 3.6v7.5z m0-52.5c0 1.65 1.1 3.15 2.7 3.6 2.4 0.7 4.8-1.1 4.8-3.6v-7.5c0-1.65-1.1-3.15-2.7-3.6-2.4-0.7-4.8 1.1-4.8 3.6v7.5z m0-52.5c0 1.65 1.1 3.15 2.7 3.6 2.4 0.7 4.8-1.1 4.8-3.6v-7.5c0-1.65-1.1-3.15-2.7-3.6-2.4-0.7-4.8 1.1-4.8 3.6v7.5z m0-52.5c0 1.65 1.1 3.15 2.7 3.6 2.4 0.7 4.8-1.1 4.8-3.6v-7.5c0-1.65-1.1-3.15-2.7-3.6-2.4-0.7-4.8 1.1-4.8 3.6v7.5z m0-52.5c0 1.65 1.1 3.15 2.7 3.6 2.4 0.7 4.8-1.1 4.8-3.6v-7.5c0-1.65-1.1-3.15-2.7-3.6-2.4-0.7-4.8 1.1-4.8 3.6v7.5z m0-52.5c0 1.65 1.1 3.15 2.7 3.6 2.4 0.7 4.8-1.1 4.8-3.6v-7.5c0-1.65-1.1-3.15-2.7-3.6-2.4-0.7-4.8 1.1-4.8 3.6v7.5z m0-52.5c0 1.65 1.1 3.15 2.7 3.6 2.4 0.7 4.8-1.1 4.8-3.6v-7.5c0-1.65-1.1-3.15-2.7-3.6-2.4-0.7-4.8 1.1-4.8 3.6v7.5z m0-52.5c0 1.65 1.1 3.15 2.7 3.6 2.4 0.7 4.8-1.1 4.8-3.6v-7.5c0-1.65-1.1-3.15-2.7-3.6-2.4-0.7-4.8 1.1-4.8 3.6v7.5z m0-52.5c0 1.65 1.1 3.15 2.7 3.6 2.4 0.7 4.8-1.1 4.8-3.6v-7.5c0-1.65-1.1-3.15-2.7-3.6-2.4-0.7-4.8 1.1-4.8 3.6v7.5z m0-52.5c0 1.65 1.1 3.15 2.7 3.6 2.4 0.7 4.8-1.1 4.8-3.6v-7.5c0-1.65-1.1-3.15-2.7-3.6-2.4-0.7-4.8 1.1-4.8 3.6v7.5z" fill="#212121" p-id="34169"></path><path d="M778.25 337.55c-28.25-28.25-67.3-45.75-110.45-45.75-43.15 0-82.2 17.5-110.45 45.75s-45.75 67.3-45.75 110.45c0 43.15 17.5 82.2 45.75 110.45s67.3 45.75 110.45 45.75c43.15 0 82.2-17.5 110.45-45.75S824 491.15 824 448c0-43.15-17.5-82.2-45.75-110.45z" fill="#FCCB0D" p-id="34170"></path><path d="M681.25 362.85l16.85 52.15 55.9-0.1c0-0.4 13.8 6.4 13.8 13.7 0 4.9-2.5 9.15-6.35 11.65l-44.7 32.35 17.4 53.15c2.35 7.25-1.6 15.05-8.8 17.4-4.85 1.6-9.9 0.35-13.45-2.8l-44.1-32.2-45.2 32.95 0.05 0.05c-6.15 4.5-14.8 3.15-19.25-3-2.9-3.95-3.35-8.95-1.7-13.2l17.1-52.3-45.3-32.75c-6.15-4.45-7.55-13.1-3.1-19.25 2.95-4.1 7.75-6.05 12.45-5.65l54.7 0.1 17.15-53.2-0.05-0.05c2.35-7.25 10.1-11.25 17.35-8.9 4.8 1.45 8.15 5.35 9.25 9.9z" fill="#424242" p-id="34171"></path></svg>