<?xml version="1.0" standalone="no"?><!DOCTYPE svg PUBLIC "-//W3C//DTD SVG 1.1//EN" "http://www.w3.org/Graphics/SVG/1.1/DTD/svg11.dtd"><svg t="1567053949124" class="icon" viewBox="0 0 1024 1024" version="1.1" xmlns="http://www.w3.org/2000/svg" p-id="40476" xmlns:xlink="http://www.w3.org/1999/xlink" width="200" height="200"><defs><style type="text/css"></style></defs><path d="M308.34588 143.964191h569.189827c11.250458 0 20.417497 9.16704 20.417497 20.417498v40.626653c0 11.250458-9.16704 20.417497-20.417497 20.417497H308.34588c-11.250458 0-20.417497-9.16704-20.417497-20.417497V164.381689c0-11.250458 9.16704-20.417497 20.417497-20.417498z" fill="#5C6BC0" p-id="40477"></path><path d="M308.34588 814.824822h569.189827c11.250458 0 20.417497 9.16704 20.417497 20.417497v40.626654c0 11.250458-9.16704 20.417497-20.417497 20.417497H308.34588c-11.250458 0-20.417497-9.16704-20.417497-20.417497v-40.626654c0-11.4588 9.16704-20.417497 20.417497-20.417497z" fill="#0288D1" p-id="40478"></path><path d="M308.34588 490.228281h569.189827c11.250458 0 20.417497 9.16704 20.417497 20.417497v40.626653c0 11.250458-9.16704 20.417497-20.417497 20.417498H308.34588c-11.250458 0-20.417497-9.16704-20.417497-20.417498V510.437436c0-11.250458 9.16704-20.209156 20.417497-20.209155z" fill="#7CB342" p-id="40479"></path><path d="M126.255137 143.964191h80.419939v81.253306H126.255137z" fill="#7986CB" p-id="40480"></path><path d="M126.255137 490.228281h80.419939v81.253306H126.255137z" fill="#9CCC65" p-id="40481"></path><path d="M126.255137 814.824822h80.419939v81.253306H126.255137z" fill="#29B6F6" p-id="40482"></path></svg>