<?xml version="1.0" standalone="no"?><!DOCTYPE svg PUBLIC "-//W3C//DTD SVG 1.1//EN" "http://www.w3.org/Graphics/SVG/1.1/DTD/svg11.dtd"><svg t="1567055657870" class="icon" viewBox="0 0 1024 1024" version="1.1" xmlns="http://www.w3.org/2000/svg" p-id="47017" xmlns:xlink="http://www.w3.org/1999/xlink" width="200" height="200"><defs><style type="text/css"></style></defs><path d="M141.2 657.4c-3.85-6.25-5.85-13.35-5.85-20.7V191.45l312.6 194.6-301.65 279.65-5.1-8.3z" fill="#EDBE00" p-id="47018"></path><path d="M506.2 422.35c2.75 1.65 5.95 2.5 9.2 2.35 3.3-0.1 6.45-1.4 9.2-3.1l54.35-33.8 299.75 276.9-8.5 5.65c-7.1 4.75-15.5 7.25-24 7.25H177.85c-8.25 0-16.3-2.35-23.25-6.75l-8.75-5.55 301.6-279.6 58.75 36.65z" fill="#FCCB0D" p-id="47019"></path><path d="M888.65 195.05v441.65c0 7.05-1.85 13.85-5.4 19.95l-5 8.6-299.85-277.05 310.25-193.15z" fill="#EDBE00" p-id="47020"></path><path d="M525.2 422.1l-0.2 0.15c-2.8 2-6.1 3.1-9.55 3.2-3.2 0.1-6.3-0.5-9.05-2.2l-0.65-0.4C383.5 346.8 261.35 270.65 139.15 194.6l-3.75-2.35v-12c0-11.35 4.85-21.9 13.2-29.55 7.95-7.35 18.45-11.35 29.3-11.35h668.35c10.8 0 21.3 4 29.3 11.35 8.3 7.65 13.2 18.2 13.2 29.55v15.55l-363.55 226.3z" fill="#FCD94F" p-id="47021"></path><path d="M642.35 570c-33.35-33.35-79.45-54-130.35-54-50.9 0-97 20.65-130.35 54-33.35 33.35-54 79.45-54 130.35 0 50.9 20.65 97 54 130.35 33.35 33.35 79.45 54 130.35 54 50.9 0 97-20.65 130.35-54 33.35-33.35 54-79.45 54-130.35-0.05-50.95-20.65-97-54-130.35z" fill="#388E3C" p-id="47022"></path><path d="M527.85 599.85l19.85 61.55 66-0.15c0-0.45 16.3 7.55 16.3 16.2 0 5.75-2.95 10.8-7.45 13.7l-52.7 38.15 20.5 62.7h0.05c2.8 8.55-1.85 17.75-10.4 20.55-5.7 1.85-11.7 0.4-15.85-3.3l-52.05-37.95-53.3 38.9 0.05 0.05c-7.25 5.3-17.45 3.7-22.75-3.55-3.4-4.7-3.95-10.6-2-15.6l20.2-61.75-53.45-38.65c-7.3-5.25-8.9-15.45-3.65-22.75 3.5-4.8 9.15-7.15 14.65-6.65l64.55 0.1 20.25-62.8-0.05-0.05c2.75-8.55 11.95-13.25 20.5-10.5 5.5 1.85 9.45 6.45 10.75 11.8z" fill="#FFFFFE" p-id="47023"></path></svg>