<?xml version="1.0" standalone="no"?><!DOCTYPE svg PUBLIC "-//W3C//DTD SVG 1.1//EN" "http://www.w3.org/Graphics/SVG/1.1/DTD/svg11.dtd"><svg t="1567051106098" class="icon" viewBox="0 0 1024 1024" version="1.1" xmlns="http://www.w3.org/2000/svg" p-id="20838" xmlns:xlink="http://www.w3.org/1999/xlink" width="200" height="200"><defs><style type="text/css"></style></defs><path d="M839.200814 459.602035c16.667345 0 29.376195 5.416887 38.334893 14.375585 9.583723 9.792065 14.167243 23.334283 14.167243 38.751576v177.923907c0 15.208952-4.58352 30.834588-14.167243 42.293387-5.833571 7.083622-13.542218 12.292167-22.917599 15.208953l8.12533 32.501322 8.542015 34.793082-31.04293-18.125737-79.794914-46.876908H545.647202c-16.667345 0-32.918006-7.083622-45.001831-17.500712-12.70885-11.042116-21.042523-26.251068-21.042523-42.085045l359.597966-231.25941z" fill="#00897B" p-id="20839"></path><path d="M490.228281 223.967447h256.885452c25.834385 0 50.835402 11.250458 69.169482 27.917802 19.375788 17.500712 31.876297 41.46002 31.876297 65.210987v305.220753c0 23.750966-12.083825 43.960122-30.834588 58.335707-18.542421 14.167243-43.960122 22.500916-70.211191 22.500915H490.228281v-479.186164z" fill="#4DB6AC" p-id="20840"></path><path d="M243.343235 223.967447h246.676704v479.186164h-107.296033l-202.716581 120.004883 32.709664-123.755035c-18.542421-4.166836-36.459817-12.083825-50.418718-22.500916-18.334079-13.75056-30.417904-32.501322-30.417905-54.377212V317.304578c0-23.750966 14.792269-47.293591 36.251475-64.585962 21.250865-17.084028 49.168667-28.75117 75.211394-28.751169z" fill="#26A69A" p-id="20841"></path><path d="M378.55707 458.351984c0-26.45941-21.459207-47.710275-47.710274-47.710275-26.45941 0-47.710275 21.459207-47.710275 47.710275 0 26.45941 21.459207 47.710275 47.710275 47.710274 26.45941 0 47.710275-21.459207 47.710274-47.710274zM490.228281 410.433367c-26.45941 0-47.710275 21.459207-47.710275 47.710275 0 26.45941 21.459207 47.710275 47.710275 47.710275 26.45941 0 47.710275-21.459207 47.710274-47.710275 0-26.251068-21.459207-47.710275-47.710274-47.710275zM601.69115 458.351984c0 26.45941 21.459207 47.710275 47.710274 47.710274 26.45941 0 47.710275-21.459207 47.710275-47.710274 0-26.45941-21.459207-47.710275-47.710275-47.710275-26.251068-0.208342-47.710275 21.250865-47.710274 47.710275z" fill="#FFFFFF" p-id="20842"></path></svg>