<?xml version="1.0" standalone="no"?><!DOCTYPE svg PUBLIC "-//W3C//DTD SVG 1.1//EN" "http://www.w3.org/Graphics/SVG/1.1/DTD/svg11.dtd"><svg t="1566826825431" class="icon" viewBox="0 0 1024 1024" version="1.1" xmlns="http://www.w3.org/2000/svg" p-id="1212" xmlns:xlink="http://www.w3.org/1999/xlink" width="200" height="200"><defs><style type="text/css"></style></defs><path d="M890.1 687.3l-93.2-53.4 88.2-23.9c19.2-5.2 30.5-24.9 25.3-44.1-5.2-19.2-24.9-30.5-44.1-25.3l-157.6 42.7-124.6-71.5L708.5 440l157.7 42.2c3.1 0.8 6.2 1.2 9.3 1.2 15.9 0 30.4-10.6 34.7-26.6 5.1-19.2-6.2-38.9-25.4-44l-88.3-23.6 87.8-50.7c17.2-9.9 23.1-31.9 13.1-49.1-9.9-17.2-31.9-23.1-49.1-13.1L760.5 327l23.6-88.3c5.1-19.2-6.2-38.9-25.4-44-19.2-5.1-38.9 6.2-44 25.4l-42.2 157.7-124.6 72v-147l115.5-115.5c14-14 14-36.8 0-50.8s-36.8-14-50.8 0L548 201.1V99.8c0-19.8-16.1-35.9-35.9-35.9-19.8 0-35.9 16.1-35.9 35.9v101.4l-64.6-64.6c-14-14-36.8-14-50.8 0s-14 36.8 0 50.8l115.5 115.5V450l-125-71.7-42.7-157.6c-5.2-19.2-24.9-30.5-44.1-25.3-19.2 5.2-30.5 24.9-25.3 44.1l23.9 88.2-88-50.4c-17.2-9.9-39.2-3.9-49.1 13.3-9.9 17.2-3.9 39.2 13.3 49.1l88 50.4-88.4 23.9c-19.2 5.2-30.5 24.9-25.3 44.1 4.3 16 18.8 26.5 34.7 26.5 3.1 0 6.3-0.4 9.4-1.3l157.6-42.7 124.6 71.5L315.5 584l-157.7-42.2c-19.2-5.1-38.9 6.2-44 25.4-5.1 19.2 6.2 38.9 25.4 44l88.3 23.6-93 53.7c-17.2 9.9-23.1 31.9-13.1 49.1 6.7 11.5 18.7 18 31.2 18 6.1 0 12.3-1.6 17.9-4.8l93-53.7-23.6 88.3c-5.1 19.2 6.2 38.9 25.4 44 3.1 0.8 6.2 1.2 9.3 1.2 15.9 0 30.4-10.6 34.7-26.7l42.2-157.7 124.6-72V715L360.6 830.6c-14 14-14 36.8 0 50.8 7 7 16.2 10.5 25.4 10.5s18.4-3.5 25.4-10.5l64.6-64.6v107.5c0 19.8 16.1 35.9 35.9 35.9 19.8 0 35.9-16.1 35.9-35.9V816.7l64.6 64.6c14 14 36.8 14 50.8 0s14-36.8 0-50.8L547.9 715.1V574l125 71.7 42.7 157.6c4.3 16 18.8 26.5 34.7 26.5 3.1 0 6.3-0.4 9.4-1.3 19.2-5.2 30.5-24.9 25.3-44.1l-23.9-88.2 93.2 53.4c5.6 3.2 11.8 4.8 17.8 4.8 12.5 0 24.6-6.5 31.2-18.1 10-17.1 4-39.1-13.2-49z" fill="#81B6FE"></path><path d="M512 512m-146.6 0a146.6 146.6 0 1 0 293.2 0 146.6 146.6 0 1 0-293.2 0Z" fill="#5AA7F9"></path></svg>